<?xml version="1.0" encoding="UTF-8" standalone="no"?>
<!DOCTYPE svg PUBLIC "-//W3C//DTD SVG 20010904//EN"
              "http://www.w3.org/TR/2001/REC-SVG-20010904/DTD/svg10.dtd">

<svg xmlns="http://www.w3.org/2000/svg"
     width="100%" height="100%"
     viewBox="0 0 1000 1169">
  <path fill="black"
        d="M 595.00,0.00
           C 602.56,0.02 609.42,0.87 616.00,4.95
             616.00,4.95 633.00,18.52 633.00,18.52
             633.00,18.52 653.00,27.13 653.00,27.13
             653.00,27.13 673.00,41.98 673.00,41.98
             682.84,48.76 693.33,54.42 704.00,59.75
             704.00,59.75 747.00,80.27 747.00,80.27
             786.63,100.08 840.99,131.83 870.91,164.00
             878.75,172.42 884.91,182.18 890.80,192.00
             910.05,224.09 914.97,238.25 928.60,272.00
             928.60,272.00 953.01,332.00 953.01,332.00
             953.01,332.00 963.91,358.00 963.91,358.00
             963.91,358.00 968.02,373.00 968.02,373.00
             968.02,373.00 977.98,402.00 977.98,402.00
             977.98,402.00 982.43,419.00 982.43,419.00
             982.43,419.00 987.64,434.00 987.64,434.00
             987.64,434.00 990.21,444.00 990.21,444.00
             992.78,452.62 999.60,465.75 999.96,474.00
             1000.10,477.19 999.97,480.11 998.43,482.99
             993.74,491.73 973.18,501.09 964.00,505.31
             964.00,505.31 918.00,526.00 918.00,526.00
             918.00,526.00 907.00,530.94 907.00,530.94
             907.00,530.94 882.00,539.02 882.00,539.02
             866.68,543.78 851.21,548.81 835.00,549.00
             825.94,549.10 814.81,547.99 808.33,540.90
             801.18,533.08 799.88,517.36 797.58,507.00
             793.25,487.52 787.52,470.06 779.00,452.00
             779.00,452.00 778.00,468.00 778.00,468.00
             778.00,468.00 778.00,509.00 778.00,509.00
             778.00,509.00 778.96,521.00 778.96,521.00
             778.96,521.00 778.96,532.00 778.96,532.00
             778.96,532.00 779.78,547.00 779.78,547.00
             779.78,547.00 779.78,575.00 779.78,575.00
             779.78,575.00 778.04,588.00 778.04,588.00
             778.04,588.00 778.04,609.00 778.04,609.00
             778.04,609.00 779.98,631.00 779.98,631.00
             779.98,631.00 779.00,650.00 779.00,650.00
             779.00,650.00 780.00,665.00 780.00,665.00
             780.00,665.00 780.75,691.00 780.75,691.00
             780.50,693.58 780.10,694.05 780.75,697.00
             780.75,697.00 780.75,707.00 780.75,707.00
             780.75,707.00 780.75,745.00 780.75,745.00
             780.75,745.00 782.00,760.00 782.00,760.00
             782.00,760.00 782.00,774.00 782.00,774.00
             782.00,774.00 783.00,790.00 783.00,790.00
             783.00,790.00 783.00,823.00 783.00,823.00
             783.00,823.00 784.00,839.00 784.00,839.00
             784.00,839.00 784.00,848.00 784.00,848.00
             784.00,848.00 785.00,870.00 785.00,870.00
             785.00,870.00 785.91,880.00 785.91,880.00
             785.91,880.00 788.83,912.00 788.83,912.00
             788.83,912.00 790.12,924.00 790.12,924.00
             790.12,924.00 790.12,934.00 790.12,934.00
             790.12,934.00 792.96,950.00 792.96,950.00
             792.96,950.00 792.96,957.00 792.96,957.00
             793.91,962.00 794.91,961.16 795.00,968.00
             795.00,968.00 795.00,980.00 795.00,980.00
             795.00,980.00 796.00,993.00 796.00,993.00
             796.00,993.00 796.00,1010.00 796.00,1010.00
             796.00,1010.00 794.71,1029.00 794.71,1029.00
             794.01,1034.41 793.08,1035.86 793.00,1042.00
             793.00,1042.00 793.00,1059.00 793.00,1059.00
             793.00,1059.00 798.00,1097.00 798.00,1097.00
             798.00,1097.00 798.00,1120.00 798.00,1120.00
             797.92,1126.47 796.62,1133.50 793.03,1139.00
             786.88,1148.43 777.05,1149.16 767.00,1150.17
             767.00,1150.17 721.00,1154.09 721.00,1154.09
             721.00,1154.09 711.00,1155.00 711.00,1155.00
             711.00,1155.00 654.00,1158.00 654.00,1158.00
             654.00,1158.00 639.00,1159.00 639.00,1159.00
             639.00,1159.00 597.00,1161.00 597.00,1161.00
             597.00,1161.00 571.00,1162.91 571.00,1162.91
             571.00,1162.91 549.00,1164.17 549.00,1164.17
             549.00,1164.17 500.00,1168.82 500.00,1168.82
             500.00,1168.82 462.00,1165.09 462.00,1165.09
             462.00,1165.09 414.00,1161.96 414.00,1161.96
             414.00,1161.96 403.00,1161.00 403.00,1161.00
             403.00,1161.00 359.00,1159.00 359.00,1159.00
             359.00,1159.00 349.00,1158.04 349.00,1158.04
             349.00,1158.04 339.00,1158.04 339.00,1158.04
             339.00,1158.04 321.00,1157.00 321.00,1157.00
             321.00,1157.00 295.00,1155.00 295.00,1155.00
             295.00,1155.00 286.00,1155.00 286.00,1155.00
             286.00,1155.00 254.00,1152.17 254.00,1152.17
             242.97,1151.10 220.46,1150.88 212.02,1144.44
             203.33,1137.83 202.78,1128.81 201.83,1119.00
             201.83,1119.00 201.00,1108.00 201.00,1108.00
             201.00,1108.00 201.00,1032.00 201.00,1032.00
             201.00,1032.00 202.00,1017.00 202.00,1017.00
             202.00,1017.00 202.00,989.00 202.00,989.00
             202.00,989.00 203.00,972.00 203.00,972.00
             203.00,972.00 203.00,944.00 203.00,944.00
             203.00,944.00 204.00,929.00 204.00,929.00
             204.00,929.00 205.00,880.00 205.00,880.00
             205.00,880.00 206.04,865.00 206.04,865.00
             206.04,865.00 206.04,848.00 206.04,848.00
             206.04,848.00 207.00,837.00 207.00,837.00
             207.00,837.00 207.00,822.00 207.00,822.00
             207.00,822.00 208.00,809.00 208.00,809.00
             208.00,809.00 208.00,795.00 208.00,795.00
             208.00,795.00 209.04,779.00 209.04,779.00
             209.04,779.00 209.04,765.00 209.04,765.00
             209.04,765.00 210.04,753.00 210.04,753.00
             210.04,753.00 210.04,738.00 210.04,738.00
             210.04,738.00 211.00,726.00 211.00,726.00
             211.00,726.00 212.00,690.00 212.00,690.00
             212.00,690.00 213.00,676.00 213.00,676.00
             213.00,676.00 214.00,642.00 214.00,642.00
             214.00,642.00 215.00,627.00 215.00,627.00
             215.00,627.00 217.00,567.00 217.00,567.00
             217.00,567.00 218.00,552.00 218.00,552.00
             218.00,552.00 220.00,498.00 220.00,498.00
             220.00,498.00 221.00,483.00 221.00,483.00
             221.09,475.28 221.87,458.58 220.00,452.00
             220.00,452.00 211.43,475.00 211.43,475.00
             211.43,475.00 207.42,488.00 207.42,488.00
             207.42,488.00 200.26,517.00 200.26,517.00
             198.56,526.10 197.44,536.19 189.91,542.61
             183.38,548.17 173.24,549.09 165.00,549.00
             148.79,548.81 133.32,543.78 118.00,539.02
             118.00,539.02 93.00,530.94 93.00,530.94
             93.00,530.94 77.00,523.85 77.00,523.85
             77.00,523.85 36.00,505.26 36.00,505.26
             26.32,500.57 5.74,491.83 1.14,481.99
             -0.02,479.51 -0.08,476.69 0.04,474.00
             0.42,465.14 7.31,452.90 9.96,444.00
             9.96,444.00 12.09,435.00 12.09,435.00
             12.09,435.00 17.58,419.00 17.58,419.00
             17.58,419.00 22.02,402.00 22.02,402.00
             22.02,402.00 31.98,373.00 31.98,373.00
             31.98,373.00 36.09,358.00 36.09,358.00
             36.09,358.00 46.99,332.00 46.99,332.00
             46.99,332.00 69.80,276.00 69.80,276.00
             84.75,238.91 101.67,195.35 128.29,165.00
             135.16,157.16 140.30,153.24 148.00,146.73
             165.52,131.91 167.48,130.17 187.00,117.95
             187.00,117.95 249.00,82.26 249.00,82.26
             249.00,82.26 276.00,69.69 276.00,69.69
             276.00,69.69 304.00,55.74 304.00,55.74
             314.14,50.51 323.77,44.27 333.00,37.58
             333.00,37.58 347.00,27.09 347.00,27.09
             353.62,22.90 358.88,22.71 365.00,19.62
             365.00,19.62 377.00,12.00 377.00,12.00
             379.40,20.06 383.85,20.78 391.00,23.85
             391.00,23.85 421.00,34.66 421.00,34.66
             439.20,40.34 457.11,43.44 476.00,45.42
             476.00,45.42 490.00,46.66 490.00,46.66
             490.00,46.66 499.00,46.01 499.00,46.01
             499.00,46.01 508.00,46.66 508.00,46.66
             508.00,46.66 514.00,46.09 514.00,46.09
             533.58,44.69 550.08,42.61 569.00,36.88
             569.00,36.88 587.00,31.65 587.00,31.65
             587.00,31.65 609.00,22.99 609.00,22.99
             612.25,21.65 621.39,18.65 621.95,14.91
             622.38,12.05 618.98,9.57 617.00,8.04
             606.58,0.05 602.91,3.64 595.00,0.00 Z" />
</svg>
