<?xml version="1.0" encoding="UTF-8" standalone="no"?>
<!DOCTYPE svg PUBLIC "-//W3C//DTD SVG 20010904//EN"
              "http://www.w3.org/TR/2001/REC-SVG-20010904/DTD/svg10.dtd">

<svg xmlns="http://www.w3.org/2000/svg"
     width="100%" height="100%"
     viewBox="0 0 1000 1169">
  <path class="back-neck-base-svg" fill="#000000"
        d="M 394.00,0.46
           C 427.05,-4.11 442.53,12.94 479.00,13.00
             500.34,13.03 523.00,14.23 544.00,10.72
             557.29,8.49 574.37,0.16 588.00,0.00
             599.74,-0.13 610.45,-1.23 619.98,7.21
             621.62,8.66 623.73,10.85 624.34,13.00
             625.48,17.01 622.11,19.50 619.00,21.10
             619.00,21.10 596.00,30.42 596.00,30.42
             563.05,42.85 528.07,48.05 493.00,48.00
             493.00,48.00 481.00,47.09 481.00,47.09
             452.21,45.11 426.07,38.88 399.00,28.95
             394.68,27.36 380.13,21.86 377.74,18.73
             370.33,9.06 386.98,2.03 394.00,0.46 Z" />
</svg>
