<?xml version="1.0" encoding="UTF-8" standalone="no"?>
<!DOCTYPE svg PUBLIC "-//W3C//DTD SVG 20010904//EN"
              "http://www.w3.org/TR/2001/REC-SVG-20010904/DTD/svg10.dtd">

<svg xmlns="http://www.w3.org/2000/svg"
     width="100%" height="100%"
     viewBox="0 0 1000 1170">
  <path class="back-base-svg" fill="#000000" stroke="none"
        d="M 220.00,451.00
           C 220.00,451.00 213.20,468.00 213.20,468.00
             213.20,468.00 205.71,491.00 205.71,491.00
             205.71,491.00 199.42,518.00 199.42,518.00
             197.85,526.70 196.18,536.62 188.96,542.61
             183.60,547.06 174.81,548.52 168.00,548.91
             164.18,549.12 162.53,548.52 159.00,548.17
             142.82,546.55 134.31,544.06 119.00,539.00
             119.00,539.00 93.00,530.55 93.00,530.55
             93.00,530.55 40.00,506.86 40.00,506.86
             30.42,502.59 20.81,498.02 12.00,492.30
             7.28,489.24 2.55,485.59 0.80,480.00
             -1.72,471.92 4.25,460.60 7.19,453.00
             7.19,453.00 12.04,437.00 12.04,437.00
             12.04,437.00 17.28,422.00 17.28,422.00
             17.28,422.00 23.00,401.00 23.00,401.00
             23.00,401.00 31.57,376.00 31.57,376.00
             31.57,376.00 37.06,357.00 37.06,357.00
             37.06,357.00 45.99,336.00 45.99,336.00
             45.99,336.00 68.60,280.00 68.60,280.00
             82.90,244.25 97.21,207.30 120.15,176.00
             129.58,163.14 137.18,156.86 149.00,146.72
             167.64,130.72 171.03,128.19 192.00,115.60
             192.00,115.60 244.00,85.26 244.00,85.26
             269.68,72.01 296.27,61.36 321.00,46.19
             321.00,46.19 335.00,36.58 335.00,36.58
             335.00,36.58 347.00,27.47 347.00,27.47
             347.00,27.47 368.00,18.04 368.00,18.04
             368.00,18.04 382.00,6.22 382.00,6.22
             389.48,1.08 398.13,-0.10 407.00,0.00
             423.60,0.19 438.96,8.12 455.00,11.20
             471.19,14.30 498.04,14.19 515.00,14.00
             523.51,13.90 542.90,11.98 551.00,9.84
             566.50,5.76 579.46,-0.18 596.00,0.00
             602.49,0.08 610.52,1.52 616.00,5.11
             622.05,9.06 624.23,13.39 632.00,18.29
             632.00,18.29 652.00,26.93 652.00,26.93
             652.00,26.93 669.00,39.57 669.00,39.57
             677.92,45.95 687.36,51.48 697.00,56.69
             697.00,56.69 744.00,79.26 744.00,79.26
             744.00,79.26 798.00,109.60 798.00,109.60
             822.49,124.30 828.74,127.75 851.00,146.73
             858.54,153.16 864.01,157.45 870.83,165.00
             881.29,176.58 890.55,192.39 898.28,206.00
             911.50,229.25 918.04,247.84 928.01,272.00
             928.01,272.00 948.00,321.00 948.00,321.00
             948.00,321.00 958.43,347.00 958.43,347.00
             958.43,347.00 963.64,359.00 963.64,359.00
             963.64,359.00 968.34,376.00 968.34,376.00
             968.34,376.00 978.28,405.00 978.28,405.00
             978.28,405.00 984.69,428.00 984.69,428.00
             984.69,428.00 994.20,457.00 994.20,457.00
             996.61,463.14 1000.79,471.37 999.67,478.00
             998.60,484.37 994.07,488.06 989.00,491.48
             980.20,497.43 970.61,501.89 961.00,506.31
             961.00,506.31 906.00,530.94 906.00,530.94
             906.00,530.94 881.00,539.00 881.00,539.00
             866.43,543.86 856.37,546.63 841.00,548.17
             837.47,548.52 835.82,549.12 832.00,548.91
             828.77,548.72 820.98,547.52 818.00,546.45
             804.12,541.49 802.74,529.46 800.39,517.00
             800.39,517.00 797.35,503.00 797.35,503.00
             793.90,487.99 786.48,464.19 779.00,451.00
             779.00,451.00 778.00,468.00 778.00,468.00
             778.00,468.00 778.00,510.00 778.00,510.00
             778.00,510.00 779.00,526.00 779.00,526.00
             779.00,526.00 780.00,551.00 780.00,551.00
             780.00,551.00 781.00,567.00 781.00,567.00
             781.00,567.00 781.00,748.00 781.00,748.00
             781.00,748.00 782.00,763.00 782.00,763.00
             782.00,763.00 782.00,776.00 782.00,776.00
             782.00,776.00 783.00,790.00 783.00,790.00
             783.00,790.00 783.00,824.00 783.00,824.00
             783.00,824.00 784.00,840.00 784.00,840.00
             784.00,840.00 785.00,872.00 785.00,872.00
             785.00,872.00 785.91,882.00 785.91,882.00
             785.91,882.00 788.83,913.00 788.83,913.00
             788.83,913.00 790.12,926.00 790.12,926.00
             790.12,926.00 790.12,936.00 790.12,936.00
             790.12,936.00 792.72,951.00 792.72,951.00
             792.72,951.00 793.26,959.00 793.26,959.00
             794.29,965.30 794.98,962.35 795.00,971.00
             795.00,971.00 795.00,1022.00 795.00,1022.00
             794.98,1032.25 793.58,1031.94 793.04,1039.00
             793.04,1039.00 793.04,1060.00 793.04,1060.00
             793.03,1078.07 797.95,1088.61 798.00,1098.00
             798.00,1098.00 798.00,1119.00 798.00,1119.00
             797.98,1130.59 795.45,1142.09 784.00,1147.60
             775.97,1151.46 753.83,1152.22 744.00,1153.17
             744.00,1153.17 698.00,1157.00 698.00,1157.00
             698.00,1157.00 689.00,1157.00 689.00,1157.00
             689.00,1157.00 655.00,1159.00 655.00,1159.00
             655.00,1159.00 640.00,1160.00 640.00,1160.00
             640.00,1160.00 595.00,1162.00 595.00,1162.00
             595.00,1162.00 569.00,1163.91 569.00,1163.91
             569.00,1163.91 547.00,1165.17 547.00,1165.17
             547.00,1165.17 500.00,1169.82 500.00,1169.82
             500.00,1169.82 453.00,1165.17 453.00,1165.17
             453.00,1165.17 415.00,1162.91 415.00,1162.91
             415.00,1162.91 357.00,1160.00 357.00,1160.00
             357.00,1160.00 347.00,1159.04 347.00,1159.04
             347.00,1159.04 338.00,1159.04 338.00,1159.04
             338.00,1159.04 321.00,1158.00 321.00,1158.00
             321.00,1158.00 310.00,1157.04 310.00,1157.04
             310.00,1157.04 255.00,1153.09 255.00,1153.09
             243.58,1152.25 220.91,1151.86 212.04,1145.21
             202.26,1137.89 201.02,1122.33 201.00,1111.00
             201.00,1111.00 201.00,1029.00 201.00,1029.00
             201.00,1029.00 202.00,1014.00 202.00,1014.00
             202.00,1014.00 202.00,987.00 202.00,987.00
             202.00,987.00 203.00,970.00 203.00,970.00
             203.00,970.00 203.00,948.00 203.00,948.00
             203.00,948.00 204.00,933.00 204.00,933.00
             204.00,933.00 204.00,916.00 204.00,916.00
             204.00,916.00 205.00,900.00 205.00,900.00
             205.00,900.00 205.00,879.00 205.00,879.00
             205.00,879.00 206.04,864.00 206.04,864.00
             206.04,864.00 206.04,847.00 206.04,847.00
             206.04,847.00 207.00,836.00 207.00,836.00
             207.00,836.00 207.00,821.00 207.00,821.00
             207.00,821.00 208.00,808.00 208.00,808.00
             208.00,808.00 208.00,795.00 208.00,795.00
             208.00,795.00 209.04,779.00 209.04,779.00
             209.04,779.00 209.04,764.00 209.04,764.00
             209.04,764.00 210.04,752.00 210.04,752.00
             210.04,752.00 210.04,737.00 210.04,737.00
             210.04,737.00 211.00,725.00 211.00,725.00
             211.00,725.00 212.00,689.00 212.00,689.00
             212.00,689.00 213.00,675.00 213.00,675.00
             213.00,675.00 214.00,641.00 214.00,641.00
             214.00,641.00 215.00,625.00 215.00,625.00
             215.00,625.00 217.00,566.00 217.00,566.00
             217.00,566.00 218.00,551.00 218.00,551.00
             218.00,551.00 220.00,497.00 220.00,497.00
             220.00,497.00 221.00,482.00 221.00,482.00
             221.08,474.66 221.76,457.21 220.00,451.00 Z" />
</svg>
