<?xml version="1.0" encoding="UTF-8" standalone="no"?>
<!DOCTYPE svg PUBLIC "-//W3C//DTD SVG 20010904//EN"
              "http://www.w3.org/TR/2001/REC-SVG-20010904/DTD/svg10.dtd">

<svg xmlns="http://www.w3.org/2000/svg"
     width="100%" height="100%"
     viewBox="0 0 347 64">
  <path class="brand-svg" fill="#000000"
        d="M 258.00,13.00
           C 258.10,10.96 258.17,8.98 258.80,7.00
             262.71,-5.27 273.90,3.20 279.00,2.42
             280.83,2.14 284.18,0.72 286.00,0.00
             285.84,7.06 283.77,13.92 275.00,12.76
             271.76,12.34 269.71,10.58 267.00,10.48
             264.76,10.40 260.52,12.29 258.00,13.00 Z
           M 18.00,16.53
           C 23.87,15.57 34.72,15.29 39.90,18.41
             44.08,20.94 46.40,26.83 41.72,29.99
             38.56,32.52 34.36,30.55 31.00,29.99
             24.96,28.31 19.59,28.85 16.57,35.02
             15.86,36.46 15.34,38.39 15.28,40.00
             15.21,41.73 15.55,43.44 16.31,45.00
             17.01,46.41 17.96,47.66 19.13,48.70
             27.04,55.73 35.63,46.21 41.72,50.02
             46.27,52.86 44.53,58.59 40.89,61.30
             36.32,64.71 28.50,64.07 23.00,64.00
             -4.01,63.64 -7.48,24.15 18.00,16.53 Z
           M 314.00,16.53
           C 322.81,15.09 333.05,15.65 339.82,22.21
             350.11,32.19 349.63,54.18 334.00,62.00
             329.23,64.39 324.18,64.06 319.00,64.00
             291.99,63.64 288.52,24.15 314.00,16.53 Z
           M 76.00,56.00
           C 72.98,56.00 65.77,55.52 63.39,57.02
             60.34,58.94 59.16,65.50 52.04,63.57
             47.55,62.35 46.56,58.10 47.39,54.00
             47.39,54.00 58.75,28.00 58.75,28.00
             59.85,25.67 61.96,20.11 63.65,18.60
             69.68,13.17 75.44,21.30 77.74,26.00
             77.74,26.00 84.22,40.00 84.22,40.00
             86.13,44.04 91.19,53.89 90.34,58.00
             89.26,63.15 82.78,65.98 78.65,62.26
             76.78,60.58 76.45,58.31 76.00,56.00 Z
           M 92.00,17.00
           C 92.00,17.00 102.96,17.74 102.96,17.74
             102.96,17.74 116.00,31.00 116.00,31.00
             117.79,27.65 119.10,25.89 121.59,23.02
             127.48,16.20 129.67,17.00 138.00,17.00
             138.00,17.00 138.00,54.00 138.00,54.00
             138.00,56.16 138.22,59.76 136.98,61.57
             134.48,65.20 127.18,64.51 125.02,60.85
             123.37,58.06 124.00,44.95 124.00,41.00
             124.00,41.00 115.00,50.00 115.00,50.00
             115.00,50.00 107.00,41.00 107.00,41.00
             107.00,46.23 108.54,60.07 103.77,62.98
             101.42,64.42 94.93,64.00 92.00,64.00
             92.00,64.00 92.00,17.00 92.00,17.00 Z
           M 170.00,56.00
           C 166.98,56.00 159.77,55.52 157.39,57.02
             154.34,58.94 153.16,65.50 146.04,63.57
             141.55,62.35 140.56,58.10 141.39,54.00
             141.39,54.00 152.75,28.00 152.75,28.00
             153.85,25.67 155.96,20.11 157.65,18.60
             163.68,13.17 169.44,21.30 171.74,26.00
             171.74,26.00 178.22,40.00 178.22,40.00
             180.13,44.04 185.19,53.89 184.34,58.00
             183.26,63.15 176.78,65.98 172.65,62.26
             170.78,60.58 170.45,58.31 170.00,56.00 Z
           M 187.00,17.00
           C 190.50,17.00 196.85,16.42 199.57,18.74
             202.41,21.15 201.99,25.63 202.00,29.00
             202.00,29.00 202.00,53.00 202.00,53.00
             202.00,53.00 217.00,53.00 217.00,53.00
             216.97,55.76 217.16,60.27 215.15,62.40
             213.42,64.24 210.32,63.98 208.00,64.00
             208.00,64.00 197.00,64.00 197.00,64.00
             188.87,63.94 187.12,62.26 187.00,54.00
             187.00,54.00 187.00,17.00 187.00,17.00 Z
           M 218.00,17.00
           C 218.00,17.00 248.00,17.00 248.00,17.00
             247.96,30.07 244.54,29.00 233.00,29.00
             233.00,29.00 233.00,35.00 233.00,35.00
             233.00,35.00 246.00,35.00 246.00,35.00
             245.99,46.89 244.60,46.00 233.00,46.00
             233.00,46.00 233.00,53.00 233.00,53.00
             233.00,53.00 248.00,53.00 248.00,53.00
             247.98,55.71 248.18,60.18 246.18,62.26
             244.15,64.36 239.72,64.00 237.00,64.00
             237.00,64.00 218.00,64.00 218.00,64.00
             218.00,64.00 218.00,17.00 218.00,17.00 Z
           M 265.00,56.00
           C 264.55,58.31 264.22,60.58 262.35,62.26
             258.22,65.98 251.74,63.15 250.66,58.00
             249.80,53.88 254.87,44.07 256.78,40.00
             256.78,40.00 266.99,18.57 266.99,18.57
             269.97,15.55 275.69,17.28 278.04,20.23
             280.07,22.78 283.39,30.70 284.86,34.00
             284.86,34.00 293.04,52.00 293.04,52.00
             294.41,56.02 294.47,61.33 289.89,63.26
             282.20,66.51 280.51,58.21 276.79,56.60
             274.75,55.72 267.58,56.00 265.00,56.00 Z
           M 318.02,29.51
           C 304.89,35.34 311.93,54.52 324.00,51.42
             332.84,49.14 335.64,37.44 328.78,31.43
             325.58,28.63 321.90,28.82 318.02,29.51 Z
           M 69.00,39.00
           C 69.00,39.00 67.00,44.00 67.00,44.00
             67.00,44.00 71.00,44.00 71.00,44.00
             71.00,44.00 69.00,39.00 69.00,39.00 Z
           M 163.00,39.00
           C 163.00,39.00 161.00,44.00 161.00,44.00
             161.00,44.00 165.00,44.00 165.00,44.00
             165.00,44.00 163.00,39.00 163.00,39.00 Z
           M 273.00,39.00
           C 273.00,39.00 270.00,44.00 270.00,44.00
             270.00,44.00 274.00,44.00 274.00,44.00
             274.00,44.00 273.00,39.00 273.00,39.00 Z" />
</svg>
