<?xml version="1.0" encoding="UTF-8" standalone="no"?>
<!DOCTYPE svg PUBLIC "-//W3C//DTD SVG 20010904//EN"
              "http://www.w3.org/TR/2001/REC-SVG-20010904/DTD/svg10.dtd">

<svg xmlns="http://www.w3.org/2000/svg"
     width="100%" height="100%"
     viewBox="0 0 1000 1169">
  <path class="front-base-svg" fill="#000000"
        d="M 223.00,436.00
           C 221.50,441.27 219.04,445.07 216.86,450.00
             216.86,450.00 210.35,467.00 210.35,467.00
             210.35,467.00 202.42,496.00 202.42,496.00
             199.02,511.40 199.08,526.39 181.00,531.79
             177.56,532.82 175.53,532.95 172.00,533.00
             172.00,533.00 163.00,533.00 163.00,533.00
             149.19,532.98 136.13,528.90 123.00,525.14
             123.00,525.14 93.00,515.91 93.00,515.91
             93.00,515.91 71.00,506.43 71.00,506.43
             71.00,506.43 42.00,494.14 42.00,494.14
             42.00,494.14 13.00,479.72 13.00,479.72
             8.57,477.14 2.63,472.95 0.74,468.00
             -2.63,459.17 2.35,449.85 5.55,442.00
             5.55,442.00 11.75,423.00 11.75,423.00
             11.75,423.00 15.48,413.00 15.48,413.00
             15.48,413.00 19.63,398.00 19.63,398.00
             19.63,398.00 29.66,369.00 29.66,369.00
             29.66,369.00 35.55,349.00 35.55,349.00
             35.55,349.00 45.58,326.00 45.58,326.00
             45.58,326.00 67.15,275.00 67.15,275.00
             81.69,241.13 87.31,223.54 107.58,191.00
             112.02,183.86 117.32,175.45 122.62,169.00
             131.56,158.09 140.42,151.36 151.00,142.57
             151.00,142.57 168.00,129.04 168.00,129.04
             185.83,116.50 238.50,87.18 259.00,77.26
             279.62,67.28 300.42,58.47 320.00,46.39
             320.00,46.39 348.00,26.36 348.00,26.36
             348.00,26.36 368.00,17.87 368.00,17.87
             368.00,17.87 383.00,5.11 383.00,5.11
             391.40,-0.41 400.41,-0.11 410.00,0.00
             426.06,0.19 440.52,8.20 456.00,10.92
             474.16,14.11 506.56,13.22 526.00,13.00
             550.98,12.70 571.62,0.09 591.00,0.00
             591.00,0.00 599.00,0.00 599.00,0.00
             605.27,0.08 611.71,1.29 617.00,4.85
             622.41,8.49 625.37,13.44 632.00,17.53
             632.00,17.53 654.00,27.47 654.00,27.47
             654.00,27.47 666.00,36.58 666.00,36.58
             674.62,42.84 683.52,48.85 693.00,53.74
             693.00,53.74 759.00,86.26 759.00,86.26
             759.00,86.26 807.00,113.40 807.00,113.40
             828.89,126.37 832.12,128.56 852.00,144.74
             861.45,152.43 868.66,158.60 876.70,168.00
             876.70,168.00 890.05,187.00 890.05,187.00
             907.48,214.17 915.62,233.57 927.60,263.00
             927.60,263.00 954.42,327.00 954.42,327.00
             954.42,327.00 964.56,350.00 964.56,350.00
             964.56,350.00 969.51,367.00 969.51,367.00
             969.51,367.00 977.97,391.00 977.97,391.00
             977.97,391.00 983.75,412.00 983.75,412.00
             983.75,412.00 989.74,430.00 989.74,430.00
             992.76,440.82 1002.53,457.17 999.57,468.00
             998.21,472.98 993.16,476.58 989.00,479.19
             979.79,484.94 969.80,489.19 960.00,493.78
             934.04,505.96 907.57,517.05 880.00,525.00
             859.15,531.01 851.57,534.26 829.00,534.00
             819.85,533.89 810.22,531.04 804.97,523.00
             800.48,516.12 798.33,499.83 796.13,491.00
             791.50,472.48 785.47,452.65 776.00,436.00
             776.15,442.68 776.96,443.27 777.71,449.00
             777.71,449.00 779.00,466.00 779.00,466.00
             779.00,466.00 779.00,520.00 779.00,520.00
             779.00,520.00 781.00,555.00 781.00,555.00
             781.00,555.00 781.00,738.00 781.00,738.00
             781.00,738.00 782.00,751.00 782.00,751.00
             782.00,751.00 782.00,755.00 782.00,755.00
             782.00,755.00 783.00,769.00 783.00,769.00
             783.00,769.00 783.00,781.00 783.00,781.00
             783.00,781.00 784.00,796.00 784.00,796.00
             784.00,796.00 784.00,837.00 784.00,837.00
             784.00,837.00 785.00,852.00 785.00,852.00
             785.00,852.00 786.00,878.00 786.00,878.00
             786.00,878.00 789.83,917.00 789.83,917.00
             789.83,917.00 791.17,937.00 791.17,937.00
             791.17,937.00 793.02,946.00 793.02,946.00
             793.02,946.00 793.02,956.00 793.02,956.00
             793.02,956.00 795.93,965.00 795.93,965.00
             795.93,965.00 795.93,983.00 795.93,983.00
             795.93,983.00 795.93,1008.00 795.93,1008.00
             795.99,1016.93 794.93,1017.50 794.17,1025.00
             794.17,1025.00 793.00,1048.00 793.00,1048.00
             793.00,1048.00 795.43,1079.00 795.43,1079.00
             795.43,1079.00 798.57,1094.00 798.57,1094.00
             800.00,1103.94 798.88,1120.34 793.52,1128.99
             785.79,1141.46 769.58,1139.76 757.00,1141.42
             757.00,1141.42 695.00,1146.09 695.00,1146.09
             695.00,1146.09 664.00,1148.00 664.00,1148.00
             664.00,1148.00 649.00,1149.00 649.00,1149.00
             649.00,1149.00 604.00,1151.00 604.00,1151.00
             604.00,1151.00 588.00,1152.00 588.00,1152.00
             588.00,1152.00 577.00,1152.91 577.00,1152.91
             577.00,1152.91 541.00,1155.09 541.00,1155.09
             541.00,1155.09 500.00,1158.97 500.00,1158.97
             500.00,1158.97 491.00,1158.08 491.00,1158.08
             491.00,1158.08 460.00,1155.09 460.00,1155.09
             460.00,1155.09 423.00,1152.91 423.00,1152.91
             423.00,1152.91 416.00,1152.00 416.00,1152.00
             416.00,1152.00 406.00,1152.00 406.00,1152.00
             406.00,1152.00 396.00,1151.00 396.00,1151.00
             396.00,1151.00 353.00,1149.00 353.00,1149.00
             353.00,1149.00 341.00,1148.04 341.00,1148.04
             341.00,1148.04 332.00,1148.04 332.00,1148.04
             332.00,1148.04 315.00,1147.00 315.00,1147.00
             315.00,1147.00 305.00,1146.09 305.00,1146.09
             305.00,1146.09 282.00,1144.91 282.00,1144.91
             282.00,1144.91 251.00,1142.09 251.00,1142.09
             239.05,1141.21 218.83,1141.27 210.10,1132.82
             200.59,1123.60 201.86,1108.15 202.00,1096.00
             202.00,1096.00 207.00,1057.00 207.00,1057.00
             207.00,1057.00 207.00,1034.00 207.00,1034.00
             207.00,1034.00 204.00,1001.00 204.00,1001.00
             204.00,1001.00 205.00,968.00 205.00,968.00
             205.10,961.07 206.10,961.98 207.04,957.00
             207.04,957.00 207.04,948.00 207.04,948.00
             208.67,936.78 209.85,938.12 210.00,925.00
             210.00,925.00 213.83,887.00 213.83,887.00
             213.83,887.00 215.00,864.00 215.00,864.00
             215.00,864.00 215.96,852.00 215.96,852.00
             215.96,852.00 215.96,837.00 215.96,837.00
             215.96,837.00 217.00,821.00 217.00,821.00
             217.00,821.00 217.00,789.00 217.00,789.00
             217.00,789.00 218.00,774.00 218.00,774.00
             218.00,774.00 218.00,760.00 218.00,760.00
             218.00,760.00 219.00,744.00 219.00,744.00
             219.00,744.00 219.00,562.00 219.00,562.00
             219.00,562.00 220.00,547.00 220.00,547.00
             220.00,547.00 220.00,543.00 220.00,543.00
             220.00,543.00 220.96,533.00 220.96,533.00
             220.96,533.00 220.96,523.00 220.96,523.00
             220.96,523.00 222.00,508.00 222.00,508.00
             222.00,508.00 222.00,457.00 222.00,457.00
             222.09,449.56 225.00,443.12 223.00,436.00 Z" />
</svg>
