<?xml version="1.0" encoding="UTF-8" standalone="no"?>
<!DOCTYPE svg PUBLIC "-//W3C//DTD SVG 20010904//EN"
              "http://www.w3.org/TR/2001/REC-SVG-20010904/DTD/svg10.dtd">

<svg xmlns="http://www.w3.org/2000/svg"
     width="84.6668mm" height="99.0602mm"
     viewBox="0 0 1000 1170">
  <path fill="blue" stroke="none"
        d="M 378.00,18.00
           C 407.69,29.88 422.61,36.73 455.00,42.58
             492.52,49.34 534.32,46.77 571.00,36.58
             593.31,30.37 601.36,26.26 622.00,18.00
             626.24,35.46 609.20,63.09 599.41,77.00
             589.71,90.78 573.84,106.54 559.00,114.69
             524.86,133.43 477.53,133.48 443.00,115.74
             431.05,109.60 422.34,101.45 413.00,92.00
             401.21,80.07 388.46,59.56 382.01,44.00
             378.64,35.86 375.87,26.76 378.00,18.00 Z" />
             
  <path fill="red" stroke="none"
        d="M 396.00,1.46
           C 419.08,-1.73 432.18,7.30 453.00,11.55
             461.91,13.37 470.94,13.90 480.00,14.00
             480.00,14.00 491.00,14.92 491.00,14.92
             491.00,14.92 499.00,14.10 499.00,14.10
             499.00,14.10 507.00,14.82 507.00,14.82
             507.00,14.82 521.00,14.00 521.00,14.00
             529.78,13.99 541.54,13.07 550.00,10.84
             562.75,7.49 577.86,1.16 591.00,1.00
             599.00,0.91 606.76,0.91 614.00,4.90
             622.98,9.85 623.47,15.23 636.00,21.22
             643.82,24.95 655.36,25.53 655.96,36.00
             656.85,51.54 641.32,75.53 632.42,88.00
             624.01,99.79 615.84,110.08 605.00,119.83
             578.94,143.28 542.20,157.95 507.00,158.00
             507.00,158.00 491.00,158.00 491.00,158.00
             482.36,157.90 467.50,155.49 459.00,153.37
             419.99,143.66 394.29,124.02 370.37,92.00
             363.62,82.95 348.33,58.41 345.54,48.00
             344.27,43.53 342.68,34.12 345.54,30.21
             349.82,24.54 361.83,24.30 372.00,16.47
             382.32,8.52 380.90,4.82 396.00,1.46 Z
           M 622.00,18.00
           C 622.00,18.00 602.00,26.19 602.00,26.19
             586.08,32.36 569.75,37.58 553.00,41.00
             512.10,49.33 469.21,47.75 429.00,36.58
             429.00,36.58 403.00,28.19 403.00,28.19
             403.00,28.19 378.00,18.00 378.00,18.00
             375.88,26.72 377.98,33.86 381.20,42.00
             385.54,52.95 395.56,70.69 402.65,80.00
             412.30,92.66 426.98,106.99 441.00,114.69
             475.21,133.47 522.40,133.52 557.00,115.74
             569.26,109.44 578.46,100.76 587.99,91.00
             599.10,79.61 611.86,58.79 617.99,44.00
             621.49,35.56 624.21,27.10 622.00,18.00 Z" />
</svg>
