<?xml version="1.0" encoding="UTF-8" standalone="no"?>
<!DOCTYPE svg PUBLIC "-//W3C//DTD SVG 20010904//EN"
              "http://www.w3.org/TR/2001/REC-SVG-20010904/DTD/svg10.dtd">

<svg xmlns="http://www.w3.org/2000/svg"
     width="100%" height="100%"
     viewBox="0 0 1000 1169">
  <path fill="black"
        d="M 223.00,436.00
           C 223.00,436.00 214.42,456.00 214.42,456.00
             209.69,468.45 205.96,481.04 202.88,494.00
             200.31,504.88 199.75,518.87 190.91,526.66
             182.66,533.93 172.14,533.05 162.00,533.00
             148.30,532.93 135.04,528.57 122.00,524.86
             122.00,524.86 92.00,515.54 92.00,515.54
             92.00,515.54 70.00,506.01 70.00,506.01
             70.00,506.01 38.00,492.24 38.00,492.24
             38.00,492.24 12.00,479.14 12.00,479.14
             7.92,476.69 2.48,472.57 0.74,468.00
             -3.50,456.90 6.36,441.71 9.56,431.00
             9.56,431.00 15.80,412.00 15.80,412.00
             15.80,412.00 22.00,390.00 22.00,390.00
             22.00,390.00 29.66,369.00 29.66,369.00
             29.66,369.00 35.55,349.00 35.55,349.00
             35.55,349.00 43.00,332.00 43.00,332.00
             43.00,332.00 70.99,266.00 70.99,266.00
             84.35,233.61 99.26,198.76 121.01,171.00
             137.78,149.60 169.35,127.30 193.00,113.58
             193.00,113.58 247.00,83.26 247.00,83.26
             247.00,83.26 288.00,63.75 288.00,63.75
             299.66,57.92 312.15,51.68 323.00,44.48
             328.72,40.69 339.45,31.88 345.00,30.00
             342.89,45.99 347.79,53.38 355.58,67.00
             366.25,85.65 375.72,98.74 391.00,114.00
             416.18,139.14 447.65,153.45 483.00,156.96
             483.00,156.96 492.00,156.96 492.00,156.96
             492.00,156.96 500.00,157.92 500.00,157.92
             500.00,157.92 509.00,157.04 509.00,157.04
             533.09,155.99 555.74,150.36 577.00,138.69
             596.43,128.02 612.89,112.46 626.35,95.00
             634.52,84.40 652.06,57.50 655.10,45.00
             656.31,40.03 656.00,35.07 656.00,30.00
             656.00,30.00 678.00,44.95 678.00,44.95
             678.00,44.95 715.00,64.75 715.00,64.75
             715.00,64.75 759.00,86.26 759.00,86.26
             759.00,86.26 808.00,113.99 808.00,113.99
             829.19,126.44 832.95,129.23 852.00,144.74
             861.20,152.23 869.96,159.76 877.54,169.00
             898.96,195.13 914.91,231.82 927.60,263.00
             927.60,263.00 955.28,329.00 955.28,329.00
             955.28,329.00 964.56,350.00 964.56,350.00
             964.56,350.00 969.19,366.00 969.19,366.00
             969.19,366.00 977.97,391.00 977.97,391.00
             977.97,391.00 983.44,411.00 983.44,411.00
             983.44,411.00 989.74,430.00 989.74,430.00
             992.76,440.82 1002.53,457.17 999.57,468.00
             998.21,472.98 993.16,476.58 989.00,479.19
             980.12,484.73 970.49,488.96 961.00,493.31
             961.00,493.31 925.00,508.87 925.00,508.87
             925.00,508.87 905.00,517.31 905.00,517.31
             905.00,517.31 877.00,525.86 877.00,525.86
             863.29,529.76 851.62,533.83 837.00,534.00
             826.45,534.12 815.07,534.29 807.21,525.90
             800.30,518.51 799.54,504.66 797.13,495.00
             792.08,474.78 786.38,454.24 776.00,436.00
             776.15,442.68 776.96,443.27 777.71,449.00
             777.71,449.00 779.00,466.00 779.00,466.00
             779.00,466.00 779.00,520.00 779.00,520.00
             779.00,520.00 781.00,555.00 781.00,555.00
             781.00,555.00 781.00,738.00 781.00,738.00
             781.00,738.00 782.00,751.00 782.00,751.00
             782.00,751.00 782.00,755.00 782.00,755.00
             782.00,755.00 783.00,769.00 783.00,769.00
             783.00,769.00 783.00,781.00 783.00,781.00
             783.00,781.00 784.00,796.00 784.00,796.00
             784.00,796.00 784.00,837.00 784.00,837.00
             784.00,837.00 785.00,852.00 785.00,852.00
             785.00,852.00 786.00,878.00 786.00,878.00
             786.00,878.00 789.83,917.00 789.83,917.00
             789.83,917.00 791.17,937.00 791.17,937.00
             791.17,937.00 793.02,946.00 793.02,946.00
             793.02,946.00 793.02,956.00 793.02,956.00
             793.02,956.00 795.93,965.00 795.93,965.00
             795.93,965.00 795.93,983.00 795.93,983.00
             795.93,983.00 795.93,1008.00 795.93,1008.00
             795.99,1016.93 794.93,1017.50 794.17,1025.00
             794.17,1025.00 793.00,1048.00 793.00,1048.00
             793.00,1048.00 795.43,1079.00 795.43,1079.00
             795.43,1079.00 798.57,1094.00 798.57,1094.00
             800.00,1103.94 798.88,1120.34 793.52,1128.99
             785.79,1141.46 769.58,1139.76 757.00,1141.42
             757.00,1141.42 695.00,1146.09 695.00,1146.09
             695.00,1146.09 664.00,1148.00 664.00,1148.00
             664.00,1148.00 649.00,1149.00 649.00,1149.00
             649.00,1149.00 604.00,1151.00 604.00,1151.00
             604.00,1151.00 588.00,1152.00 588.00,1152.00
             588.00,1152.00 577.00,1152.91 577.00,1152.91
             577.00,1152.91 541.00,1155.09 541.00,1155.09
             541.00,1155.09 500.00,1158.97 500.00,1158.97
             500.00,1158.97 491.00,1158.08 491.00,1158.08
             491.00,1158.08 460.00,1155.09 460.00,1155.09
             460.00,1155.09 423.00,1152.91 423.00,1152.91
             423.00,1152.91 416.00,1152.00 416.00,1152.00
             416.00,1152.00 406.00,1152.00 406.00,1152.00
             406.00,1152.00 396.00,1151.00 396.00,1151.00
             396.00,1151.00 353.00,1149.00 353.00,1149.00
             353.00,1149.00 341.00,1148.04 341.00,1148.04
             341.00,1148.04 332.00,1148.04 332.00,1148.04
             332.00,1148.04 315.00,1147.00 315.00,1147.00
             315.00,1147.00 305.00,1146.09 305.00,1146.09
             305.00,1146.09 282.00,1144.91 282.00,1144.91
             282.00,1144.91 251.00,1142.09 251.00,1142.09
             239.05,1141.21 218.83,1141.27 210.10,1132.82
             200.59,1123.60 201.86,1108.15 202.00,1096.00
             202.00,1096.00 207.00,1057.00 207.00,1057.00
             207.00,1057.00 207.00,1034.00 207.00,1034.00
             207.00,1034.00 204.00,1001.00 204.00,1001.00
             204.00,1001.00 205.00,968.00 205.00,968.00
             205.10,961.07 206.10,961.98 207.04,957.00
             207.04,957.00 207.04,948.00 207.04,948.00
             208.67,936.78 209.85,938.12 210.00,925.00
             210.00,925.00 213.83,887.00 213.83,887.00
             213.83,887.00 215.00,864.00 215.00,864.00
             215.00,864.00 215.96,852.00 215.96,852.00
             215.96,852.00 215.96,837.00 215.96,837.00
             215.96,837.00 217.00,821.00 217.00,821.00
             217.00,821.00 217.00,789.00 217.00,789.00
             217.00,789.00 218.00,774.00 218.00,774.00
             218.00,774.00 218.00,760.00 218.00,760.00
             218.00,760.00 219.00,744.00 219.00,744.00
             219.00,744.00 219.00,562.00 219.00,562.00
             219.00,562.00 220.00,547.00 220.00,547.00
             220.00,547.00 220.00,543.00 220.00,543.00
             220.00,543.00 220.96,533.00 220.96,533.00
             220.96,533.00 220.96,523.00 220.96,523.00
             220.96,523.00 222.00,508.00 222.00,508.00
             222.00,508.00 222.00,457.00 222.00,457.00
             222.09,449.56 225.00,443.12 223.00,436.00 Z" />
</svg>
