<?xml version="1.0" encoding="UTF-8" standalone="no"?>
<!DOCTYPE svg PUBLIC "-//W3C//DTD SVG 20010904//EN"
              "http://www.w3.org/TR/2001/REC-SVG-20010904/DTD/svg10.dtd">

<svg xmlns="http://www.w3.org/2000/svg"
     width="100%" height="100%"
     viewBox="0 0 1000 1169">
  <path class="front-neck-base-intern-svg" fill="green"
        d="M 378.15,20.00
           C 385.28,20.66 393.90,25.29 401.00,27.95
             401.00,27.95 439.00,39.63 439.00,39.63
             478.76,49.44 522.25,49.44 562.00,39.63
             579.13,35.40 590.65,31.54 607.00,25.00
             610.05,23.78 619.55,18.62 622.19,21.61
             623.26,23.20 622.69,26.15 622.19,28.00
             621.44,34.41 619.81,39.03 617.40,45.00
             608.46,67.07 590.57,90.60 572.00,105.33
             535.63,134.18 476.24,135.44 437.00,111.54
             421.22,101.93 405.89,84.53 396.05,69.00
             389.59,58.79 380.02,41.93 378.15,30.00
             378.15,30.00 378.15,20.00 378.15,20.00 Z" />
			 
	<path class="front-neck-base-extern-svg" fill="red" stroke="none"
        d="M 397.00,0.44
           C 417.58,-2.20 431.91,5.31 451.00,10.11
             459.56,12.26 479.04,13.99 488.00,14.00
             505.02,14.03 528.59,14.32 545.00,11.00
             559.35,8.09 576.94,0.17 591.00,0.00
             599.45,-0.10 608.52,0.13 616.00,4.61
             623.04,8.82 626.66,15.04 634.00,19.10
             639.73,22.26 652.86,24.72 655.98,30.18
             657.25,32.41 657.03,36.43 657.00,39.00
             656.83,53.78 643.52,73.85 635.33,86.00
             629.70,94.35 618.13,109.18 611.00,115.91
             579.04,146.04 540.58,159.51 497.00,159.00
             497.00,159.00 487.00,158.09 487.00,158.09
             438.10,154.67 401.04,134.49 371.37,95.00
             363.79,84.90 349.11,61.60 345.10,50.00
             343.55,45.53 341.66,34.47 344.17,30.33
             347.95,24.10 361.36,23.39 370.96,16.07
             381.83,7.79 380.40,3.55 397.00,0.44 Z
           M 378.00,20.00
           C 378.00,39.45 385.27,50.81 395.00,67.00
             405.63,84.68 421.98,102.82 440.00,113.13
             480.01,136.01 541.08,132.86 576.00,101.83
             595.06,84.90 607.25,67.17 617.69,44.00
             619.97,38.94 622.07,31.54 622.53,26.00
             622.82,22.50 622.14,19.82 617.96,20.68
             617.96,20.68 587.00,32.67 587.00,32.67
             565.52,39.83 533.56,46.89 511.00,47.00
             480.33,47.14 456.72,45.05 427.00,36.58
             427.00,36.58 397.00,26.58 397.00,26.58
             390.72,24.19 384.75,20.70 378.00,20.00 Z" />
</svg>
