<?xml version="1.0" encoding="UTF-8" standalone="no"?>
<!DOCTYPE svg PUBLIC "-//W3C//DTD SVG 20010904//EN"
              "http://www.w3.org/TR/2001/REC-SVG-20010904/DTD/svg10.dtd">

<svg xmlns="http://www.w3.org/2000/svg"
     width="100%" height="100%"
     viewBox="0 0 300 333">
  <path class="shield-svg" fill="#e63f35"
        d="M 147.00,16.48
           C 154.42,15.77 175.67,22.13 184.00,24.27
             184.00,24.27 254.00,42.08 254.00,42.08
             254.00,42.08 274.00,46.99 274.00,46.99
             276.61,47.58 281.36,48.23 282.98,50.51
             284.23,52.27 284.00,55.87 284.00,58.00
             284.00,58.00 284.00,69.00 284.00,69.00
             284.00,69.00 282.00,84.00 282.00,84.00
             282.00,84.00 282.00,94.00 282.00,94.00
             282.00,94.00 280.29,102.00 280.29,102.00
             280.29,102.00 274.46,139.00 274.46,139.00
             267.63,175.35 262.73,205.99 240.57,237.00
             221.27,264.02 200.97,280.70 174.00,299.41
             174.00,299.41 157.00,310.42 157.00,310.42
             154.28,312.11 151.39,314.54 148.00,313.70
             145.56,313.09 136.70,306.94 134.00,305.22
             122.47,297.85 111.33,289.93 100.72,281.29
             79.49,264.02 61.67,245.22 48.48,221.00
             36.20,198.44 32.80,179.58 27.72,155.00
             22.05,127.66 17.18,99.93 15.96,72.00
             15.96,72.00 15.00,61.00 15.00,61.00
             14.97,58.47 14.62,52.49 16.02,50.51
             17.64,48.23 22.39,47.58 25.00,46.99
             25.00,46.99 45.00,41.97 45.00,41.97
             45.00,41.97 75.00,34.53 75.00,34.53
             75.00,34.53 103.00,27.50 103.00,27.50
             103.00,27.50 147.00,16.48 147.00,16.48 Z" />
     <path class="shield-extern-svg" fill="#FFF"
        d="M 147.00,0.53
           C 154.49,-0.31 176.40,6.59 185.00,8.67
             185.00,8.67 268.00,29.59 268.00,29.59
             268.00,29.59 288.00,34.73 288.00,34.73
             291.38,35.60 295.15,36.26 297.44,39.14
             300.15,42.56 299.99,47.86 300.00,52.00
             300.00,52.00 300.00,57.00 300.00,57.00
             300.00,57.00 298.04,79.00 298.04,79.00
             298.04,79.00 298.04,87.00 298.04,87.00
             298.04,87.00 295.70,106.00 295.70,106.00
             295.70,106.00 291.44,131.00 291.44,131.00
             284.97,171.22 277.16,213.27 252.86,247.00
             233.25,274.21 206.18,297.54 178.00,315.57
             171.01,320.04 156.10,331.75 148.00,330.86
             143.05,330.33 133.31,323.68 129.00,320.72
             129.00,320.72 94.00,296.01 94.00,296.01
             73.90,280.28 54.23,260.81 40.75,239.00
             31.43,223.93 24.14,207.12 19.60,190.00
             19.60,190.00 16.49,175.00 16.49,175.00
             16.49,175.00 6.71,125.00 6.71,125.00
             6.71,125.00 4.30,113.00 4.30,113.00
             4.30,113.00 3.68,104.00 3.68,104.00
             3.68,104.00 2.01,97.00 2.01,97.00
             2.01,97.00 2.01,86.00 2.01,86.00
             2.01,86.00 0.00,72.00 0.00,72.00
             0.00,72.00 0.00,48.00 0.00,48.00
             0.01,45.02 -0.28,41.67 1.60,39.14
             3.82,36.16 8.54,35.33 12.00,34.47
             12.00,34.47 35.00,28.83 35.00,28.83
             35.00,28.83 43.00,26.49 43.00,26.49
             43.00,26.49 63.00,21.50 63.00,21.50
             63.00,21.50 147.00,0.53 147.00,0.53 Z
           M 149.00,16.47
           C 149.00,16.47 112.00,25.50 112.00,25.50
             112.00,25.50 72.00,35.53 72.00,35.53
             72.00,35.53 45.00,42.29 45.00,42.29
             45.00,42.29 24.00,47.67 24.00,47.67
             21.57,48.24 17.59,48.58 15.99,50.70
             14.77,52.32 14.97,56.01 15.01,58.00
             15.01,58.00 16.04,67.00 16.04,67.00
             16.04,67.00 16.04,77.00 16.04,77.00
             18.63,102.86 22.39,128.59 27.79,154.00
             32.79,177.54 35.99,196.21 47.26,218.00
             58.87,240.46 75.91,259.72 95.00,276.13
             106.34,285.88 121.35,296.92 134.00,304.95
             137.32,307.05 146.47,313.50 150.00,313.31
             153.14,313.15 162.93,306.37 166.00,304.33
             178.77,295.86 191.23,286.90 203.00,277.08
             225.66,258.16 246.75,232.54 257.99,205.00
             266.98,182.95 272.36,149.80 276.32,126.00
             276.32,126.00 283.09,69.00 283.09,69.00
             283.09,69.00 284.00,59.00 284.00,59.00
             284.02,56.85 284.30,52.41 283.01,50.70
             281.49,48.69 277.35,48.12 275.00,47.53
             275.00,47.53 254.00,42.37 254.00,42.37
             254.00,42.37 179.00,23.35 179.00,23.35
             179.00,23.35 149.00,16.47 149.00,16.47 Z" />

     <path class="camaleao-svg" fill="#fff"
        d="M 125.00,78.00
           C 117.96,90.25 115.53,88.39 111.16,105.00
             110.25,108.44 109.20,114.47 109.04,118.00
             108.94,120.25 109.26,123.67 107.98,125.57
             104.52,130.68 97.72,126.73 95.00,126.62
             91.07,126.46 85.75,130.31 82.45,124.85
             80.38,121.44 80.29,115.89 79.83,112.00
             79.31,107.62 77.91,104.66 78.06,100.00
             78.23,94.32 81.96,86.98 84.63,82.00
             86.78,77.98 89.56,71.43 94.04,69.75
             97.10,68.60 100.93,69.89 104.00,70.58
             112.53,72.48 117.28,73.62 125.00,78.00 Z
           M 114.00,125.00
           C 111.96,113.00 118.51,87.71 130.00,82.00
             133.58,86.74 142.95,94.90 141.67,101.00
             140.37,107.18 132.02,108.22 134.03,112.80
             135.08,115.21 139.73,116.99 142.00,118.11
             142.00,118.11 157.00,127.00 157.00,127.00
             157.62,120.25 153.32,118.55 155.11,115.61
             157.10,112.36 160.40,117.44 162.53,117.64
             162.53,117.64 166.86,116.79 166.86,116.79
             167.93,116.82 168.87,117.13 169.09,118.32
             169.55,120.84 166.07,122.76 165.35,126.09
             165.35,126.09 166.00,137.00 166.00,137.00
             154.49,136.89 156.46,133.04 143.00,128.52
             131.30,124.58 125.89,125.00 114.00,125.00 Z
           M 94.00,155.00
           C 95.02,149.32 95.72,138.43 100.22,134.65
             105.25,130.43 116.64,129.99 123.00,130.00
             136.70,130.02 158.32,134.63 162.08,149.98
             162.58,151.49 162.85,152.97 162.08,154.37
             160.92,156.02 156.81,157.83 155.00,158.87
             150.94,161.20 147.36,163.72 144.04,167.04
             133.84,177.24 130.04,189.90 130.00,204.00
             130.00,204.00 118.00,203.00 118.00,203.00
             118.66,205.79 122.23,212.38 120.89,214.34
             120.24,215.29 119.26,215.24 118.31,214.85
             118.31,214.85 114.63,212.27 114.63,212.27
             112.12,211.43 108.39,214.16 107.33,211.58
             106.47,209.48 109.39,207.22 109.76,204.72
             110.41,200.42 104.70,194.27 113.02,191.72
             113.02,191.72 117.00,191.00 117.00,191.00
             117.00,191.00 103.00,164.00 103.00,164.00
             100.47,165.39 97.03,168.02 94.09,166.85
             91.64,165.87 89.78,162.40 86.96,160.88
             82.63,158.56 80.10,161.99 78.00,156.00
             83.98,154.01 84.66,153.24 83.00,147.00
             91.67,145.19 86.97,151.05 94.00,155.00 Z
           M 150.00,223.00
           C 144.89,215.86 136.74,210.47 134.85,204.99
             133.36,200.65 134.58,195.34 135.66,191.00
             139.32,176.39 150.47,163.59 165.00,159.00
             165.00,159.00 167.00,167.00 167.00,167.00
             169.23,166.18 173.88,163.67 175.91,163.99
             179.02,164.48 180.54,168.54 183.18,170.52
             185.09,171.95 196.02,173.53 187.89,177.77
             187.89,177.77 185.00,179.00 185.00,179.00
             186.01,183.36 186.69,185.36 182.00,187.00
             180.11,181.75 179.54,180.45 175.00,177.00
             171.94,185.35 171.38,183.74 169.21,194.00
             168.65,196.67 167.91,204.08 166.98,205.72
             166.98,205.72 159.32,214.00 159.32,214.00
             155.79,218.22 155.48,221.23 150.00,223.00 Z
           M 212.00,228.00
           C 206.89,225.38 203.95,219.65 198.58,219.97
             193.26,220.29 187.59,229.92 182.60,225.97
             178.42,222.67 185.36,215.70 188.01,213.80
             197.94,206.68 215.31,209.97 215.75,219.00
             215.91,222.32 213.70,225.35 212.00,228.00 Z
           M 199.00,263.00
           C 195.36,263.00 188.24,263.24 185.00,262.47
             175.21,260.14 167.87,251.05 162.70,243.00
             161.06,240.46 156.71,232.72 156.17,230.00
             154.89,223.43 163.42,214.29 169.00,212.00
             170.70,224.03 175.05,240.81 183.18,250.00
             191.50,259.38 195.63,257.32 199.00,263.00 Z
           M 219.00,224.00
           C 224.75,232.71 220.34,251.18 210.99,255.98
             204.80,259.15 195.56,255.56 191.00,251.00
             194.86,250.48 198.62,249.98 201.99,247.86
             208.41,243.81 213.47,231.16 219.00,224.00 Z
           M 180.00,231.00
           C 182.37,231.03 184.66,230.87 186.83,232.02
             188.97,233.15 190.70,235.82 192.98,235.80
             197.13,235.77 197.01,227.93 200.51,229.34
             204.81,230.86 202.36,238.34 200.51,240.66
             198.18,243.00 196.07,243.76 193.00,243.94
             183.86,244.50 181.26,239.04 180.00,231.00 Z" />
</svg>
